<svg xmlns="http://www.w3.org/2000/svg" width="237" height="212" viewBox="0 0 237 212">
    <g fill="none" fill-rule="evenodd">
        <g fill-rule="nonzero">
            <g>
                <path fill="#FDB62F" d="M4 195.502c.004-2.156.56-4.273 1.619-6.15L107.642 9.544c2.274-4.049 6.566-6.552 11.213-6.544 4.655.012 8.947 2.507 11.253 6.544L231.38 189.392c1.062 1.86 1.623 3.966 1.619 6.11 0 6.904-5.603 12.498-12.516 12.498H16.516C9.606 208 4 202.405 4 195.502z" transform="translate(-602 -194) translate(602 194)"/>
                <path fill="#FFA230" d="M231.381 189.457L167.271 76C146.116 132.402 105.171 179.286 52 208h168.486c6.912 0 12.514-5.575 12.514-12.454.004-2.137-.553-4.235-1.619-6.09z" transform="translate(-602 -194) translate(602 194)"/>
                <g fill="#DE4C3C">
                    <path d="M0 .023H15V75.023H0zM0 90.023H15V105.023H0z" transform="translate(-602 -194) translate(602 194) translate(111 71)"/>
                </g>
                <path fill="#000" d="M133.55 8.502C128.958.446 118.668-2.38 110.563 2.181c-2.654 1.496-4.855 3.679-6.36 6.321L2.135 187.578c-1.354 2.403-2.085 5.1-2.134 7.853-.11 9.042 7.178 16.459 16.275 16.569H220.53c9.073.023 16.451-7.272 16.47-16.294.009-2.835-.726-5.622-2.132-8.088L133.55 8.502zm86.979 195.645H16.474c-4.732-.008-8.564-3.828-8.56-8.532.004-1.453.38-2.882 1.094-4.15L111.075 12.35c2.417-4.272 7.86-5.787 12.158-3.385 1.426.797 2.603 1.967 3.405 3.385l101.356 179.115c2.31 4.107.837 9.298-3.29 11.595-1.276.71-2.714 1.083-4.175 1.087z" transform="translate(-602 -194) translate(602 194)"/>
                <path fill="#000" d="M109 73.023H124V147.023H109zM109 161.023H124V176.023H109z" transform="translate(-602 -194) translate(602 194)"/>
            </g>
        </g>
    </g>
</svg>
