<svg xmlns="http://www.w3.org/2000/svg" xmlns:xlink="http://www.w3.org/1999/xlink" width="52" height="52" viewBox="0 0 52 52">
    <defs>
        <circle id="xiwvdkooya" cx="26" cy="26" r="26"/>
    </defs>
    <g fill="none" fill-rule="evenodd">
        <g>
            <g>
                <g>
                    <g transform="translate(-1044 -1073) translate(848 1057) translate(196 16)">
                        <mask id="6bq3xx7pjb" fill="#fff">
                            <use xlink:href="#xiwvdkooya"/>
                        </mask>
                        <use fill="#238CF8" fill-rule="nonzero" xlink:href="#xiwvdkooya"/>
                        <path fill="#0768DD" fill-rule="nonzero" d="M54.167 26.89L33.763 6.5l-22.93 30.534 2.766 2.793 1.17 5.023 5.776 5.773c2.59.892 5.37 1.377 8.264 1.377 13.929 0 25.233-11.221 25.358-25.11z" mask="url(#6bq3xx7pjb)"/>
                        <path fill="#FFF" fill-rule="nonzero" d="M10.168 11.819v30.53c0 2.915 2.424 5.278 5.415 5.278h23c2.991 0 5.415-2.363 5.415-5.279V17.885L32.362 6.54h-16.78c-2.99 0-5.414 2.363-5.414 5.279z" mask="url(#6bq3xx7pjb)"/>
                        <path fill="#EAE1DC" fill-rule="nonzero" d="M43.999 17.884v24.464c0 2.916-2.424 5.28-5.415 5.28H27.083V6.538h5.28l11.636 11.345z" mask="url(#6bq3xx7pjb)"/>
                        <path fill="#CEC5C0" fill-rule="nonzero" d="M43.998 17.885L32.362 6.54 32.362 17.885z" mask="url(#6bq3xx7pjb)"/>
                        <path fill="#FF807D" fill-rule="nonzero" d="M44.12 38.971H10.047c-1.949 0-3.528-1.54-3.528-3.44v-8.955c0-1.9 1.58-3.44 3.528-3.44h34.071c1.949 0 3.528 1.54 3.528 3.44v8.955c0 1.9-1.58 3.44-3.528 3.44z" mask="url(#6bq3xx7pjb)"/>
                        <path fill="#FC3E53" fill-rule="nonzero" d="M47.647 26.576v8.956c0 1.9-1.58 3.44-3.528 3.44H27.083V23.134H44.12c1.949 0 3.528 1.541 3.528 3.441z" mask="url(#6bq3xx7pjb)"/>
                        <path fill="#EAE1DC" fill-rule="nonzero" d="M36.183 28.879L36.183 27.335 32.15 27.335 32.15 30.226 32.15 31.77 32.15 34.772 33.733 34.772 33.733 31.77 35.988 31.77 35.988 30.226 33.733 30.226 33.733 28.879z" mask="url(#6bq3xx7pjb)"/>
                        <path fill="#FFF" fill-rule="nonzero" d="M27.129 27.4h-2.467v.011h-.003l.005.777.004 2.86c0 .8.008 2.89.008 2.89l.002.771.792-.003c.05 0 1.245-.004 1.722-.013 1.805-.03 3.115-1.561 3.115-3.64 0-2.184-1.277-3.652-3.178-3.652zm.035 5.75c-.206.003-.558.006-.889.008l-.024-4.213h.878c1.48 0 1.595 1.614 1.595 2.109 0 1.43-.784 2.083-1.56 2.096zM20.47 27.313h-2.486v7.481h1.583v-2.583l.904-.003c1.402 0 2.544-1.098 2.544-2.448 0-1.349-1.141-2.447-2.544-2.447zm0 3.351l-.896.003-.003-.906c0-.179 0-.554-.002-.904h.902c.52 0 .96.414.96.904 0 .49-.44.903-.96.903z" mask="url(#6bq3xx7pjb)"/>
                    </g>
                </g>
            </g>
        </g>
    </g>
</svg>

