<?xml version="1.0" encoding="UTF-8"?>
<svg width="46px" height="58px" viewBox="0 0 46 58" version="1.1" xmlns="http://www.w3.org/2000/svg" xmlns:xlink="http://www.w3.org/1999/xlink">
    <title>pin</title>
    <g id="UI" stroke="none" stroke-width="1" fill="none" fill-rule="evenodd">
        <g id="Homepage" transform="translate(-977.000000, -2941.000000)" fill-rule="nonzero">
            <g id="Group-15" transform="translate(0.000000, 2714.000000)">
                <g id="Bitmap" transform="translate(58.000000, 130.000000)">
                    <g id="pin" transform="translate(919.000000, 97.000000)">
                        <path d="M22.968,0 C10.32,0 0.024,10.296 0.024,22.944 C0.024,24.384 0.156,25.836 0.432,27.252 C0.444,27.336 0.492,27.588 0.588,28.02 C0.936,29.568 1.452,31.092 2.124,32.544 C4.596,38.364 10.032,47.304 21.96,56.88 C22.26,57.12 22.62,57.24 22.98,57.24 C23.34,57.24 23.7,57.12 24,56.88 C35.916,47.304 41.364,38.364 43.836,32.544 C44.508,31.092 45.024,29.58 45.372,28.02 C45.468,27.588 45.516,27.336 45.528,27.252 C45.792,25.836 45.936,24.384 45.936,22.944 C45.912,10.296 35.616,0 22.968,0 Z" id="Shape" fill="#016599"></path>
                        <path d="M22.968,8.628 C14.94,8.628 8.4,15.168 8.4,23.196 C8.4,31.224 14.94,37.764 22.968,37.764 C30.996,37.764 37.536,31.224 37.536,23.196 C37.536,15.168 30.996,8.628 22.968,8.628 Z" id="Shape" fill="#FFFFFF"></path>
                    </g>
                </g>
            </g>
        </g>
    </g>
</svg>