<?xml version="1.0" encoding="UTF-8"?>
<svg width="52px" height="52px" viewBox="0 0 52 52" version="1.1" xmlns="http://www.w3.org/2000/svg" xmlns:xlink="http://www.w3.org/1999/xlink">
    <title>ic / ic_pdf</title>
    <defs>
        <circle id="path-1" cx="26" cy="26" r="26"></circle>
    </defs>
    <g id="UI" stroke="none" stroke-width="1" fill="none" fill-rule="evenodd">
        <g id="1.6-الخدمات" transform="translate(-1044.000000, -798.000000)">
            <g id="Group-10-Copy" transform="translate(848.000000, 782.000000)">
                <g id="pdf-2" transform="translate(196.000000, 16.000000)">
                    <g id="Path-+-Path-+-Path-+-Path-+-Path-+-Path-+-Path-+-Shape-+-Shape-Mask">
                        <mask id="mask-2" fill="white">
                            <use xlink:href="#path-1"></use>
                        </mask>
                        <use id="Mask" fill="#238CF8" fill-rule="nonzero" xlink:href="#path-1"></use>
                        <path d="M54.1666667,26.8891953 L33.7632747,6.5 L10.8333333,37.033701 L13.5989261,39.8266723 L14.7680892,44.8498232 L20.5448566,50.6225711 C23.1354018,51.5145241 25.915359,52 28.8090426,52 C42.7376565,52 54.0417459,40.7786169 54.1666667,26.8891953 L54.1666667,26.8891953 Z" id="Path" fill="#0768DD" fill-rule="nonzero" mask="url(#mask-2)"></path>
                        <path d="M10.1681611,11.8186304 L10.1681611,42.348345 C10.1681611,45.2638712 12.5922444,47.6273525 15.5825278,47.6273525 L38.5837167,47.6273525 C41.574,47.6273525 43.9980833,45.2638712 43.9980833,42.348345 L43.9980833,17.8846417 L32.3621667,6.53962292 L15.5825278,6.53962292 C12.5922444,6.53962292 10.1681611,8.90310417 10.1681611,11.8186304 Z" id="Path" fill="#FFFFFF" fill-rule="nonzero" mask="url(#mask-2)"></path>
                        <path d="M43.9985056,17.8843329 L43.9985056,42.348345 C43.9985056,45.2637683 41.5745278,47.6271467 38.58435,47.6271467 L27.0830167,47.6271467 L27.0830167,6.53931417 L32.3625889,6.53931417 L43.9985056,17.8843329 Z" id="Path" fill="#EAE1DC" fill-rule="nonzero" mask="url(#mask-2)"></path>
                        <polygon id="Path" fill="#CEC5C0" fill-rule="nonzero" mask="url(#mask-2)" points="43.9980833 17.8846417 32.3621667 6.53962292 32.3621667 17.8846417"></polygon>
                        <path d="M44.11905,38.9712375 L10.0476167,38.9712375 C8.09916667,38.9712375 6.51952778,37.4311925 6.51952778,35.5313508 L6.51952778,26.5757483 C6.51952778,24.6760096 8.09906111,23.1358617 10.0476167,23.1358617 L44.11905,23.1358617 C46.0675,23.1358617 47.6471389,24.6759067 47.6471389,26.5757483 L47.6471389,35.5313508 C47.6471389,37.4311925 46.0675,38.9712375 44.11905,38.9712375 Z" id="Path" fill="#FF807D" fill-rule="nonzero" mask="url(#mask-2)"></path>
                        <path d="M47.6466111,26.5759542 L47.6466111,35.5317625 C47.6466111,37.4316042 46.0675,38.9712375 44.1189444,38.9712375 L27.0833333,38.9712375 L27.0833333,23.13545 L44.1189444,23.13545 C46.0675,23.13545 47.6466111,24.6761125 47.6466111,26.5759542 Z" id="Path" fill="#FC3E53" fill-rule="nonzero" mask="url(#mask-2)"></path>
                        <polygon id="Path" fill="#EAE1DC" fill-rule="nonzero" mask="url(#mask-2)" points="36.1830667 28.8786117 36.1830667 27.3348617 32.1497889 27.3348617 32.1497889 30.2258937 32.1497889 31.7696437 32.1497889 34.7723404 33.7331222 34.7723404 33.7331222 31.7696437 35.9884222 31.7696437 35.9884222 30.2258937 33.7331222 30.2258937 33.7331222 28.8786117"></polygon>
                        <path d="M27.1290389,27.4009342 L24.6622056,27.4009342 L24.6622056,27.4111229 L24.6593556,27.4111229 L24.6636833,28.1882467 C24.664,28.3679392 24.6680111,30.4192742 24.6680111,31.0472717 C24.6680111,31.8482721 24.6756111,33.9371717 24.6756111,33.9371717 L24.6783556,34.7091496 L25.4702333,34.7062679 C25.5207944,34.7060621 26.7146278,34.7016367 27.1917389,34.6934033 C28.99695,34.6626313 30.3071056,33.1318488 30.3071056,31.0535496 C30.3071056,28.8688346 29.0298833,27.4009342 27.1290389,27.4009342 L27.1290389,27.4009342 Z M27.1641889,33.1499621 C26.9584611,33.1534613 26.6060111,33.1563429 26.2749889,33.1584013 L26.2513444,28.9446842 L27.1290389,28.9446842 C28.6088222,28.9446842 28.7237722,30.5589321 28.7237722,31.0536525 C28.7237722,32.4833708 27.9404444,33.1367888 27.1641889,33.1499621 L27.1641889,33.1499621 Z" id="Shape" fill="#FFFFFF" fill-rule="nonzero" mask="url(#mask-2)"></path>
                        <path d="M20.4708056,27.3130433 L19.5669333,27.3130433 L18.7752667,27.3130433 L17.9836,27.3130433 L17.9836,34.7940558 L19.5669333,34.7940558 L19.5669333,32.2109504 C19.8998556,32.2093038 20.2600111,32.20776 20.4708056,32.20776 C21.8734278,32.20776 23.0145889,31.109845 23.0145889,29.7604017 C23.0145889,28.4110613 21.8735333,27.3130433 20.4708056,27.3130433 L20.4708056,27.3130433 Z M20.4708056,30.6641129 C20.2614889,30.6641129 19.9055556,30.6655538 19.5743222,30.6672004 C19.5726333,30.3328242 19.5711556,29.9704546 19.5711556,29.7605046 C19.5711556,29.5822529 19.5702056,29.2072246 19.5692556,28.8568963 L20.4708056,28.8568963 C20.9914056,28.8568963 21.4312556,29.2707242 21.4312556,29.7605046 C21.4312556,30.250285 20.9914056,30.6641129 20.4708056,30.6641129 L20.4708056,30.6641129 Z" id="Shape" fill="#FFFFFF" fill-rule="nonzero" mask="url(#mask-2)"></path>
                    </g>
                    <g id="Group" transform="translate(8.666667, 6.500000)">
                        <g transform="translate(1.422222, 0.000000)"></g>
                    </g>
                </g>
            </g>
        </g>
    </g>
</svg>