<?xml version="1.0" encoding="UTF-8"?>
<svg width="237px" height="212px" viewBox="0 0 237 212" version="1.1" xmlns="http://www.w3.org/2000/svg" xmlns:xlink="http://www.w3.org/1999/xlink">
    <title>error-404</title>
    <g id="UI" stroke="none" stroke-width="1" fill="none" fill-rule="evenodd">
        <g id="Error" transform="translate(-602.000000, -194.000000)" fill-rule="nonzero">
            <g id="error-404" transform="translate(602.000000, 194.000000)">
                <path d="M4,195.502289 L4,195.502289 C4.00416419,193.345726 4.56077776,191.228895 5.61894502,189.352298 L107.642094,9.54408478 C109.916205,5.49521803 114.208098,2.99216462 118.855335,3 L118.855335,3 C123.510438,3.01203013 127.802331,5.50722973 130.107905,9.54408478 L231.381037,189.392029 C232.442906,191.252919 233.003683,193.3582 233,195.502751 L233,195.502751 C233,202.405782 227.397294,208 220.483811,208 L16.5161709,208 C9.6063895,208 4,202.40532 4,195.502289 Z" id="Path" fill="#FDB62F"></path>
                <path d="M231.381292,189.456836 L167.271175,76 C146.11579,132.402469 105.170659,179.286133 52,208 L220.485782,208 C227.398176,208 233,202.425265 233,195.546275 L233,195.546275 C233.003683,193.409194 232.447157,191.311244 231.381292,189.456836 Z" id="Path" fill="#FFA230"></path>
                <g id="Group" transform="translate(111.000000, 71.000000)" fill="#DE4C3C">
                    <rect id="Rectangle" x="0" y="0.0225584906" width="15" height="75"></rect>
                    <rect id="Rectangle" x="0" y="90.0225585" width="15" height="15"></rect>
                </g>
                <path d="M133.550503,8.50211185 C128.956827,0.445645754 118.66688,-2.38124903 110.561754,2.18070764 C107.907568,3.67651411 105.707473,5.8597198 104.202169,8.50211185 L2.13543528,187.578351 C0.780569186,189.981027 0.0496728544,192.678632 0.00121546298,195.43099 C-0.108171129,204.473004 7.17949945,211.889922 16.2761269,211.999944 C16.3432453,211.999944 16.4103637,211.999944 16.473779,211.999944 L220.528555,211.999944 C229.601576,212.023353 236.979972,204.728363 236.999938,195.706133 C237.007745,192.871417 236.273146,190.083631 234.866899,187.61792 L133.550503,8.50211185 Z M220.528555,204.146788 L16.473779,204.146788 C11.7416997,204.138967 7.91039579,200.318702 7.91409619,195.615032 C7.91826484,194.162476 8.29320216,192.733385 9.00836038,191.464871 L111.075094,12.3499831 C113.492282,8.07835369 118.935354,6.56276264 123.233246,8.96543917 C124.659397,9.76234375 125.836052,10.9323948 126.638233,12.3499831 L227.993974,191.465331 C230.304699,195.572242 228.831334,200.762705 224.703783,203.059557 C223.427608,203.769961 221.989885,204.143108 220.528555,204.146788 Z" id="Shape" fill="#000000"></path>
                <rect id="Rectangle" fill="#000000" x="109" y="73.0225585" width="15" height="74"></rect>
                <rect id="Rectangle" fill="#000000" x="109" y="161.022558" width="15" height="15"></rect>
            </g>
        </g>
    </g>
</svg>