<?xml version="1.0" encoding="UTF-8"?>
<svg width="24px" height="24px" viewBox="0 0 24 24" version="1.1" xmlns="http://www.w3.org/2000/svg" xmlns:xlink="http://www.w3.org/1999/xlink">
    <title>i</title>
    <g id="UI" stroke="none" stroke-width="1" fill="none" fill-rule="evenodd">
        <g id="1.1-about-us" transform="translate(-222.000000, -3558.000000)" fill="#FFFFFF" fill-rule="nonzero">
            <g id="Group-11" transform="translate(82.000000, 3542.000000)">
                <g id="i" transform="translate(140.000000, 16.000000)">
                    <path d="M23.6437607,11.1509913 L23.6437607,11.1509913 L12.8434132,0.350999726 C12.3753982,-0.116999909 11.6133549,-0.116999909 11.1513588,0.350999726 L0.351011293,11.1509913 C-0.117003764,11.6189909 -0.117003764,12.3810091 0.351011293,12.8490087 L11.1513588,23.6429815 L11.1513588,23.6490003 C11.6193738,24.1169999 12.3814171,24.1169999 12.8494322,23.6490003 L23.6497797,12.8490087 C24.1177385,12.3749903 24.1177385,11.6189909 23.6437607,11.1509913 Z M14.3974257,14.9969695 L14.3974257,11.9969906 L9.59729003,11.9969906 L9.59729003,15.5969948 L7.19719406,15.5969948 L7.19719406,10.7970103 C7.19719406,10.1310108 7.73119249,9.59703 8.39721392,9.59703 L14.3974257,9.59703 L14.3974257,6.59699485 L18.5975796,10.7970103 L14.3974257,14.9969695 Z" id="Shape"></path>
                </g>
            </g>
        </g>
    </g>
</svg>